<svg width="46" height="45" viewBox="0 0 46 45" fill="none" xmlns="http://www.w3.org/2000/svg">
<path d="M45.1244 22.4997C45.1244 34.9252 35.0502 44.9994 22.6247 44.9994C10.1991 44.9994 0.125 34.9252 0.125 22.4997C0.125 10.0741 10.1991 0 22.6247 0C35.0528 0 45.1244 10.0741 45.1244 22.4997Z" fill="#00A3FF"/>
<path d="M11.2255 23.2557L11.3226 23.1031L17.1756 13.9467C17.2612 13.8127 17.4623 13.8266 17.527 13.9722C18.5048 16.1636 19.3486 18.889 18.9533 20.5858C18.7845 21.2839 18.3222 22.2293 17.8021 23.1031C17.7351 23.2303 17.6611 23.3551 17.5825 23.4753C17.5455 23.5308 17.4831 23.5632 17.416 23.5632H11.3966C11.2347 23.5632 11.14 23.3875 11.2255 23.2557Z" fill="white"/>
<path d="M37.3145 24.9571V26.4065C37.3145 26.4897 37.2637 26.5637 37.1897 26.596C36.7367 26.7902 35.1855 27.5022 34.5406 28.3991C32.8947 30.6899 31.6372 33.9655 28.8262 33.9655H17.0993C12.943 33.9655 9.57495 30.5859 9.57495 26.4157V26.2817C9.57495 26.1707 9.66508 26.0806 9.77605 26.0806H16.3134C16.4428 26.0806 16.5376 26.2008 16.5261 26.3279C16.4798 26.7532 16.5584 27.1878 16.7595 27.5831C17.1479 28.3714 17.9523 28.8638 18.8215 28.8638H22.0578V26.3371H18.8585C18.6943 26.3371 18.5973 26.1476 18.692 26.0135C18.7267 25.9603 18.766 25.9049 18.8076 25.8425C19.1105 25.4125 19.5427 24.7444 19.9727 23.9839C20.2663 23.4707 20.5506 22.9229 20.7794 22.3727C20.8257 22.2733 20.8626 22.1716 20.8996 22.0722C20.962 21.8965 21.0268 21.7324 21.073 21.5682C21.1193 21.4295 21.1562 21.2839 21.1932 21.1475C21.3019 20.6805 21.3481 20.1859 21.3481 19.6727C21.3481 19.4716 21.3389 19.2612 21.3204 19.0601C21.3111 18.8405 21.2834 18.6209 21.2556 18.4013C21.2371 18.2071 21.2025 18.0152 21.1655 17.8141C21.1193 17.5206 21.0545 17.2293 20.9805 16.9357L20.9551 16.8248C20.8996 16.6236 20.8534 16.4318 20.7887 16.2307C20.6061 15.5996 20.3957 14.9847 20.1738 14.4091C20.0929 14.1802 20.0004 13.9607 19.9079 13.7411C19.7716 13.4105 19.6329 13.11 19.5057 12.8256C19.441 12.6962 19.3855 12.5783 19.33 12.4581C19.2676 12.3217 19.2029 12.1853 19.1382 12.0559C19.092 11.9565 19.0388 11.864 19.0018 11.7715L18.6065 11.041C18.551 10.9416 18.6435 10.8237 18.7521 10.8538L21.2256 11.5242H21.2325C21.2371 11.5242 21.2395 11.5265 21.2418 11.5265L21.5677 11.6166L21.926 11.7184L22.0578 11.7553V10.2851C22.0578 9.57546 22.6264 8.99988 23.3292 8.99988C23.6805 8.99988 23.9995 9.1432 24.2284 9.37666C24.4572 9.61016 24.6006 9.92916 24.6006 10.2851V12.4673L24.8641 12.5413C24.8849 12.5483 24.9057 12.5575 24.9242 12.5713C24.9889 12.6199 25.0814 12.6915 25.1993 12.7794C25.2917 12.8534 25.3912 12.9435 25.5113 13.036C25.7494 13.2278 26.0338 13.4752 26.3459 13.7596C26.4291 13.8312 26.51 13.9052 26.584 13.9791C26.9862 14.3536 27.437 14.7928 27.8669 15.2783C27.9871 15.4147 28.105 15.5534 28.2252 15.699C28.3454 15.8469 28.4726 15.9926 28.5835 16.1382C28.7292 16.3324 28.8863 16.5335 29.0227 16.7439C29.0874 16.8433 29.1614 16.945 29.2238 17.0444C29.3995 17.3102 29.5544 17.5853 29.7024 17.8604C29.7648 17.9875 29.8295 18.1262 29.885 18.2626C30.0491 18.6301 30.1785 19.0046 30.2617 19.3791C30.2872 19.46 30.3057 19.5479 30.3149 19.6265V19.645C30.3427 19.7559 30.3519 19.8738 30.3612 19.994C30.3981 20.3777 30.3796 20.7615 30.2964 21.1475C30.2617 21.3117 30.2155 21.4665 30.16 21.6307C30.1046 21.7878 30.0491 21.952 29.9774 22.1068C29.8388 22.4281 29.6746 22.7495 29.4804 23.05C29.418 23.161 29.344 23.2789 29.2701 23.3898C29.1891 23.5077 29.1059 23.6186 29.032 23.7273C28.9303 23.866 28.8216 24.0116 28.7107 24.1411C28.6113 24.2775 28.5096 24.4139 28.3986 24.5341C28.2437 24.7167 28.0957 24.8901 27.9409 25.0565C27.8484 25.1651 27.749 25.2761 27.6473 25.3755C27.5479 25.4864 27.4462 25.5858 27.3537 25.6783C27.1989 25.8332 27.0694 25.9534 26.9607 26.0528L26.7065 26.2863C26.6695 26.3186 26.6209 26.3371 26.5701 26.3371H24.6006V28.8638H27.0786C27.6334 28.8638 28.1605 28.6673 28.5858 28.3066C28.7315 28.1795 29.3672 27.6293 30.1184 26.7995C30.1439 26.7717 30.1763 26.7509 30.2132 26.7417L37.058 24.7629C37.1851 24.7259 37.3145 24.823 37.3145 24.9571Z" fill="white"/>
</svg>
